%FSLAX23Y23*%
%MOIN*%
G70*
G01*
G75*
G04 Layer_Physical_Order=2*
G04 Layer_Color=16711680*
%ADD10R,0.118X0.059*%
%ADD11R,0.118X0.039*%
%ADD12R,0.024X0.020*%
%ADD13C,0.010*%
%ADD14C,0.060*%
%ADD15C,0.236*%
%ADD16C,0.039*%
G36*
X1775Y-125D02*
X1765Y-135D01*
X-195D01*
X-205Y1161D01*
X-201Y1165D01*
X1775D01*
Y-125D01*
D02*
G37*
%LPC*%
G36*
X1640Y968D02*
X0D01*
X-5Y967D01*
X-9Y964D01*
X-12Y960D01*
X-13Y955D01*
Y0D01*
X-12Y-5D01*
X-9Y-9D01*
X-5Y-12D01*
X0Y-13D01*
X1645D01*
X1650Y-12D01*
X1654Y-9D01*
X1657Y-5D01*
X1658Y-0D01*
X1658Y-0D01*
X1658Y0D01*
Y0D01*
Y950D01*
X1657Y955D01*
X1654Y959D01*
X1649Y964D01*
X1645Y967D01*
X1640Y968D01*
D02*
G37*
%LPD*%
G36*
X1632Y13D02*
X13D01*
Y942D01*
X1632D01*
Y13D01*
D02*
G37*
%LPC*%
G36*
X170Y276D02*
X150Y275D01*
X131Y270D01*
X113Y263D01*
X96Y252D01*
X81Y239D01*
X68Y224D01*
X57Y207D01*
X50Y189D01*
X45Y170D01*
X44Y150D01*
X45Y130D01*
X50Y111D01*
X57Y93D01*
X68Y76D01*
X81Y61D01*
X96Y48D01*
X113Y37D01*
X131Y30D01*
X150Y25D01*
X170Y24D01*
X190Y25D01*
X209Y30D01*
X227Y37D01*
X244Y48D01*
X259Y61D01*
X272Y76D01*
X283Y93D01*
X290Y111D01*
X295Y130D01*
X296Y150D01*
X295Y170D01*
X290Y189D01*
X283Y207D01*
X272Y224D01*
X259Y239D01*
X244Y252D01*
X227Y263D01*
X209Y270D01*
X190Y275D01*
X170Y276D01*
D02*
G37*
G36*
X534Y410D02*
X524Y408D01*
X515Y405D01*
X507Y399D01*
X501Y391D01*
X497Y381D01*
X496Y372D01*
X497Y362D01*
X501Y352D01*
X507Y345D01*
X515Y338D01*
X524Y335D01*
X534Y333D01*
X544Y335D01*
X553Y338D01*
X561Y345D01*
X567Y352D01*
X571Y362D01*
X572Y372D01*
X571Y381D01*
X567Y391D01*
X561Y399D01*
X553Y405D01*
X544Y408D01*
X534Y410D01*
D02*
G37*
G36*
X1026Y607D02*
X1016Y605D01*
X1007Y602D01*
X999Y595D01*
X993Y588D01*
X989Y578D01*
X988Y568D01*
X989Y559D01*
X993Y549D01*
X999Y541D01*
X1007Y535D01*
X1016Y532D01*
X1026Y530D01*
X1036Y532D01*
X1045Y535D01*
X1053Y541D01*
X1059Y549D01*
X1063Y559D01*
X1064Y568D01*
X1063Y578D01*
X1059Y588D01*
X1053Y595D01*
X1045Y602D01*
X1036Y605D01*
X1026Y607D01*
D02*
G37*
G36*
X170Y926D02*
X150Y925D01*
X131Y920D01*
X113Y913D01*
X96Y902D01*
X81Y889D01*
X68Y874D01*
X57Y857D01*
X50Y839D01*
X45Y820D01*
X44Y800D01*
X45Y780D01*
X50Y761D01*
X57Y743D01*
X68Y726D01*
X81Y711D01*
X96Y698D01*
X113Y687D01*
X131Y680D01*
X150Y675D01*
X170Y674D01*
X190Y675D01*
X209Y680D01*
X227Y687D01*
X244Y698D01*
X259Y711D01*
X272Y726D01*
X283Y743D01*
X290Y761D01*
X295Y780D01*
X296Y800D01*
X295Y820D01*
X290Y839D01*
X283Y857D01*
X272Y874D01*
X259Y889D01*
X244Y902D01*
X227Y913D01*
X209Y920D01*
X190Y925D01*
X170Y926D01*
D02*
G37*
G36*
X1026Y410D02*
X1016Y408D01*
X1007Y405D01*
X999Y399D01*
X993Y391D01*
X989Y381D01*
X988Y372D01*
X989Y362D01*
X993Y352D01*
X999Y345D01*
X1007Y338D01*
X1016Y335D01*
X1026Y333D01*
X1036Y335D01*
X1045Y338D01*
X1053Y345D01*
X1059Y352D01*
X1063Y362D01*
X1064Y372D01*
X1063Y381D01*
X1059Y391D01*
X1053Y399D01*
X1045Y405D01*
X1036Y408D01*
X1026Y410D01*
D02*
G37*
G36*
X534Y607D02*
X524Y605D01*
X515Y602D01*
X507Y595D01*
X501Y588D01*
X497Y578D01*
X496Y568D01*
X497Y559D01*
X501Y549D01*
X507Y541D01*
X515Y535D01*
X524Y532D01*
X534Y530D01*
X544Y532D01*
X553Y535D01*
X561Y541D01*
X567Y549D01*
X571Y559D01*
X572Y568D01*
X571Y578D01*
X567Y588D01*
X561Y595D01*
X553Y602D01*
X544Y605D01*
X534Y607D01*
D02*
G37*
%LPD*%
D14*
Y372D02*
D03*
X1026Y568D02*
D03*
Y372D02*
D03*
X534Y568D02*
D03*
D15*
X170Y800D02*
D03*
Y150D02*
D03*
D16*
X259Y800D02*
D03*
X233Y737D02*
D03*
X170Y711D02*
D03*
X107Y737D02*
D03*
X81Y800D02*
D03*
X170Y889D02*
D03*
X233Y863D02*
D03*
X107D02*
D03*
X259Y150D02*
D03*
X233Y87D02*
D03*
X170Y61D02*
D03*
X107Y87D02*
D03*
X81Y150D02*
D03*
X170Y239D02*
D03*
X233Y213D02*
D03*
X107D02*
D03*
M02*
