M48
;Layer_Color=9474304
;FILE_FORMAT=2:3
INCH,TZ
;TYPE=PLATED
T1F00S00C0.020
T2F00S00C0.030
T3F00S00C0.118
%
T01
X107Y87
X170Y61
X233Y87
X259Y150
X233Y213
X170Y239
X107Y213
X81Y150
X107Y737
X170Y711
X233Y737
X259Y800
X233Y863
X170Y889
X107Y863
X81Y800
T02
X534Y372
Y568
X1026
Y372
T03
X170Y150
Y800
M30
